<?xml version="1.0" standalone="no"?>
<!DOCTYPE svg PUBLIC "-//W3C//DTD SVG 20010904//EN"
 "http://www.w3.org/TR/2001/REC-SVG-20010904/DTD/svg10.dtd">
<svg version="1.0" xmlns="http://www.w3.org/2000/svg"
 width="400.000000pt" height="320.000000pt" viewBox="0 0 400.000000 320.000000"
 preserveAspectRatio="xMidYMid meet">
 <svg width="100%" height="160.000000pt" viewBox="0 0 73 73" version="1.1" xmlns="http://www.w3.org/2000/svg" xmlns:xlink="http://www.w3.org/1999/xlink">
        <g id="database" transform="translate(15.000000, 13.000000)" fill-rule="nonzero">
            <path d="M42.6404,7.04 C41.99712,3.11344 32.80728,0 21.56,0 C10.31272,0 1.12288,3.11344 0.4796,7.04 L0.44,7.04 L0.44,7.48 L0.44,17.6 L0.44,18.04 L0.44,18.48 L0.44,28.16 L0.44,28.6 L0.44,29.04 L0.44,39.6 L0.4796,39.6 C1.12288,43.52568 10.3136,46.64 21.56,46.64 C32.8064,46.64 41.99712,43.52568 42.6404,39.6 L42.68,39.6 L42.68,29.04 L42.68,28.6 L42.68,28.16 L42.68,18.48 L42.68,18.04 L42.68,17.6 L42.68,7.48 L42.68,7.04 L42.6404,7.04 Z" id="Shape" fill="#424A60" />
            <g id="Group" transform="translate(0.000000, 28.160000)" fill="#424A60">
                <path d="M21.56,7.92 C9.8956,7.92 0.44,4.57072 0.44,0.44 L0.44,11.44 L0.4796,11.44 C1.12288,15.36568 10.3136,18.48 21.56,18.48 C32.8064,18.48 41.99712,15.36568 42.6404,11.44 L42.68,11.44 L42.68,0.44 C42.68,4.57072 33.2244,7.92 21.56,7.92 Z" id="Shape" />
                <path d="M0.44,0 L0.44,0.44 C0.44,0.29216 0.45584,0.14608 0.4796,0 L0.44,0 Z" id="Shape" />
                <path d="M42.6404,0 C42.66416,0.14608 42.68,0.29216 42.68,0.44 L42.68,0 L42.6404,0 Z" id="Shape" />
            </g>
            <g id="Group" transform="translate(0.000000, 17.600000)" fill="#556080">
                <path d="M21.56,7.92 C9.8956,7.92 0.44,4.57072 0.44,0.44 L0.44,11.44 L0.4796,11.44 C1.12288,15.36568 10.3136,18.48 21.56,18.48 C32.8064,18.48 41.99712,15.36568 42.6404,11.44 L42.68,11.44 L42.68,0.44 C42.68,4.57072 33.2244,7.92 21.56,7.92 Z" id="Shape" />
                <path d="M0.44,0 L0.44,0.44 C0.44,0.29216 0.45584,0.14608 0.4796,0 L0.44,0 Z" id="Shape" />
                <path d="M42.6404,0 C42.66416,0.14608 42.68,0.29216 42.68,0.44 L42.68,0 L42.6404,0 Z" id="Shape" />
            </g>
            <ellipse id="Oval" fill="#7FABDA" cx="21.56" cy="7.48" rx="21.12" ry="7.48">
</ellipse>
            <g id="Group" transform="translate(0.000000, 7.040000)" fill="#7383BF">
                <path d="M21.56,7.92 C9.8956,7.92 0.44,4.57072 0.44,0.44 L0.44,11.44 L0.4796,11.44 C1.12288,15.36568 10.3136,18.48 21.56,18.48 C32.8064,18.48 41.99712,15.36568 42.6404,11.44 L42.68,11.44 L42.68,0.44 C42.68,4.57072 33.2244,7.92 21.56,7.92 Z" id="Shape" />
                <path d="M0.44,0 L0.44,0.44 C0.44,0.29216 0.45584,0.14608 0.4796,0 L0.44,0 Z" id="Shape" />
                <path d="M42.6404,0 C42.66416,0.14608 42.68,0.29216 42.68,0.44 L42.68,0 L42.6404,0 Z" id="Shape" />
            </g>
        </g>
</svg>

<g transform="translate(0.000000,320.000000) scale(0.100000,-0.100000)"
fill="#000000" stroke="none">
<path d="M1858 1224 c-33 -17 -48 -43 -48 -80 0 -20 16 -43 65 -89 36 -35 65
-67 65 -72 0 -4 -7 -19 -16 -31 -18 -26 -59 -29 -92 -6 -23 16 -23 16 -20 -17
3 -34 3 -34 61 -37 52 -3 60 0 87 27 23 22 30 39 30 67 0 32 -7 44 -46 81 -26
24 -50 43 -54 43 -4 0 -12 11 -18 25 -10 21 -9 28 8 45 24 24 48 25 78 4 21
-15 22 -14 22 14 0 18 -6 32 -16 36 -27 10 -78 6 -106 -10z"/>
<path d="M687 1113 c3 -65 1 -142 -4 -170 l-10 -53 88 0 c88 0 89 0 104 30 8
16 15 31 15 33 0 2 -23 -2 -52 -9 -95 -25 -89 -35 -86 136 l3 150 -32 0 -31 0
5 -117z"/>
<path d="M1580 1222 c-12 -6 -15 -35 -15 -170 l0 -162 30 0 30 0 0 170 c0 179
-1 182 -45 162z"/>
<path d="M2061 1136 c-19 -20 -30 -36 -23 -36 8 0 12 -24 12 -79 0 -44 4 -91
10 -105 8 -23 15 -26 54 -26 31 0 46 5 50 16 9 23 8 24 -24 24 -36 0 -43 19
-38 105 3 57 4 60 31 63 37 5 36 32 -2 32 -22 0 -30 5 -33 21 -3 18 -6 17 -37
-15z"/>
<path d="M948 1110 c-57 -44 -63 -138 -12 -191 23 -24 36 -29 75 -29 41 0 51
4 78 35 26 31 31 44 31 90 0 43 -5 59 -26 84 -22 27 -32 31 -74 31 -32 0 -55
-6 -72 -20z m95 -28 c40 -44 41 -119 2 -152 -38 -32 -95 24 -95 92 0 66 55
102 93 60z"/>
<path d="M1188 1101 c-31 -28 -33 -33 -33 -96 0 -61 3 -69 28 -91 21 -18 40
-24 76 -24 41 0 49 3 59 25 11 23 10 24 -14 15 -38 -15 -53 -12 -79 15 -19 18
-25 35 -25 68 0 69 47 105 101 77 16 -9 19 -7 19 15 0 23 -3 25 -50 25 -41 0
-56 -5 -82 -29z"/>
<path d="M1381 1108 c-11 -29 -8 -32 19 -18 11 6 30 8 40 5 22 -7 40 -57 23
-62 -34 -12 -98 -51 -107 -65 -7 -11 -7 -26 0 -45 7 -22 17 -29 41 -31 18 -2
41 2 53 8 13 7 20 7 20 0 0 -5 11 -10 25 -10 25 0 25 1 25 91 0 125 -14 149
-88 149 -35 0 -44 -4 -51 -22z m89 -147 c0 -35 -12 -45 -46 -37 -19 5 -24 13
-24 36 0 28 3 30 35 30 32 0 35 -2 35 -29z"/>
<path d="M2230 1117 c-35 -27 -50 -62 -50 -115 0 -46 4 -58 29 -83 37 -37 104
-41 144 -8 54 41 60 147 12 195 -19 19 -35 24 -72 24 -26 0 -55 -6 -63 -13z
m75 -23 c21 -8 45 -56 45 -89 0 -14 -7 -40 -16 -56 -31 -62 -107 -12 -107 70
0 61 33 92 78 75z"/>
<path d="M2435 1010 l0 -120 30 0 30 0 -3 95 -4 94 26 7 c14 3 33 4 41 0 8 -3
15 -1 15 3 0 5 3 16 6 25 5 12 -1 16 -24 16 -17 0 -32 -6 -36 -15 -3 -8 -10
-15 -16 -15 -5 0 -10 7 -10 15 0 10 -10 15 -27 15 l-28 0 0 -120z"/>
<path d="M2616 1114 c-11 -28 -6 -34 18 -23 35 16 68 -4 64 -39 -2 -19 -11
-28 -33 -34 -43 -11 -75 -44 -75 -76 0 -36 17 -52 55 -52 17 0 36 5 43 12 9 9
12 9 12 0 0 -7 12 -12 28 -12 l27 0 -3 97 c-5 125 -15 143 -81 143 -35 0 -51
-4 -55 -16z m84 -160 c0 -32 -2 -35 -26 -32 -55 6 -59 68 -4 68 28 0 30 -3 30
-36z"/>
<path d="M2822 1107 c-29 -30 -29 -83 -1 -113 l21 -22 -21 -11 c-25 -14 -28
-46 -5 -55 16 -6 16 -8 0 -24 -39 -44 3 -78 84 -68 48 6 90 41 90 76 0 29 -39
50 -93 50 -34 0 -47 4 -45 13 3 6 13 13 24 15 52 8 65 15 80 43 9 18 13 41 10
55 -5 19 -2 24 14 24 11 0 20 6 20 14 0 9 -20 15 -61 20 -89 9 -93 8 -117 -17z
m86 -19 c26 -26 8 -88 -25 -88 -7 0 -20 11 -29 25 -30 46 17 100 54 63z m27
-198 c11 -17 -15 -40 -44 -40 -32 0 -52 17 -44 36 6 17 79 19 88 4z"/>
<path d="M3045 1106 c-46 -46 -45 -143 2 -190 35 -35 116 -38 134 -5 10 20 9
21 -20 14 -43 -9 -69 2 -86 35 -8 16 -15 31 -15 35 0 3 29 5 65 5 l65 0 0 43
c0 33 -6 49 -23 65 -32 31 -90 30 -122 -2z m93 -18 c7 -7 12 -20 12 -30 0 -15
-8 -18 -45 -18 -49 0 -59 15 -29 44 18 19 45 21 62 4z"/>
<path d="M2404 730 c-32 -13 -54 -50 -54 -89 0 -27 8 -40 37 -65 64 -54 93
-84 93 -95 0 -21 -40 -51 -67 -51 -14 0 -35 8 -46 17 -18 17 -18 16 -15 -17
l3 -35 58 -3 c52 -3 60 0 87 27 22 22 30 39 30 66 0 38 -9 50 -93 121 -44 37
-46 57 -11 80 23 16 28 16 60 1 l34 -17 0 29 c0 21 -6 30 -22 35 -31 8 -69 6
-94 -4z"/>
<path d="M917 723 c-4 -3 -7 -19 -7 -35 0 -23 4 -28 24 -28 16 0 27 7 31 20
10 32 -27 65 -48 43z"/>
<path d="M1170 724 c-13 -4 -15 -31 -15 -169 l0 -165 30 0 30 0 -4 85 c-3 95
6 118 48 113 26 -3 26 -3 26 -101 l0 -97 30 0 31 0 -4 103 c-2 56 -8 110 -13
120 -14 25 -67 22 -97 -5 l-24 -23 4 73 c4 75 2 78 -42 66z"/>
<path d="M1537 723 c-19 -18 -6 -34 26 -31 l32 3 3 -95 c4 -142 -10 -216 -50
-258 l-33 -35 39 6 c78 12 94 55 98 280 l3 137 -56 0 c-31 0 -59 -3 -62 -7z"/>
<path d="M2961 716 c-20 -24 -9 -51 19 -51 21 0 25 5 25 30 0 34 -24 45 -44
21z"/>
<path d="M1031 636 c-19 -20 -30 -36 -23 -36 8 0 12 -27 12 -93 0 -59 4 -97
12 -105 7 -7 31 -12 54 -12 33 0 43 4 47 19 4 16 -1 20 -27 23 l-31 3 -3 83
-3 82 31 0 c20 0 30 5 30 15 0 10 -10 15 -29 15 -22 0 -30 5 -33 21 -3 18 -6
17 -37 -15z"/>
<path d="M3321 636 c-19 -20 -30 -36 -23 -36 8 0 12 -27 12 -93 0 -59 4 -97
12 -105 7 -7 31 -12 54 -12 33 0 43 4 47 19 4 16 -1 20 -27 23 l-31 3 -3 83
-3 82 31 0 c20 0 30 5 30 15 0 10 -10 15 -29 15 -22 0 -30 5 -33 21 -3 18 -6
17 -37 -15z"/>
<path d="M570 624 c0 -3 5 -15 11 -26 6 -11 21 -61 33 -112 19 -75 26 -92 43
-94 18 -3 23 6 39 72 10 42 21 76 24 76 4 0 15 -34 25 -75 16 -65 22 -75 41
-75 19 0 24 11 44 93 13 50 29 104 37 120 13 26 13 27 -17 27 -29 0 -30 -2
-31 -42 0 -24 -6 -61 -13 -83 l-12 -40 -17 55 c-8 30 -19 68 -23 83 -5 21 -12
27 -27 25 -17 -2 -25 -17 -41 -83 l-19 -79 -13 36 c-7 21 -16 58 -19 83 -7 41
-10 45 -36 45 -16 0 -29 -3 -29 -6z"/>
<path d="M905 510 l0 -120 30 0 30 0 0 120 0 120 -30 0 -30 0 0 -120z"/>
<path d="M1740 611 c-15 -29 -13 -31 21 -19 34 12 51 1 63 -39 6 -18 1 -23
-31 -33 -51 -17 -83 -48 -83 -81 0 -39 17 -47 96 -47 l71 1 -1 98 c-2 118 -14
139 -82 139 -33 0 -46 -5 -54 -19z m88 -153 c-2 -25 -8 -34 -24 -36 -28 -4
-54 22 -47 48 4 15 14 20 40 20 33 0 34 -2 31 -32z"/>
<path d="M1925 578 c14 -29 32 -83 42 -120 16 -62 20 -68 43 -68 24 0 28 6 44
69 10 38 29 92 42 120 l23 51 -22 0 c-19 0 -25 -10 -39 -62 -9 -35 -22 -76
-28 -93 l-12 -30 -24 69 c-13 39 -24 80 -24 93 0 20 -5 23 -35 23 l-34 0 24
-52z"/>
<path d="M2160 611 c-15 -29 -13 -31 21 -19 34 12 51 1 63 -39 6 -18 1 -23
-31 -33 -51 -17 -83 -48 -83 -81 0 -39 17 -47 96 -47 l71 1 -1 98 c-2 118 -14
139 -82 139 -33 0 -46 -5 -54 -19z m88 -153 c-2 -25 -8 -34 -24 -36 -28 -4
-54 22 -47 48 4 15 14 20 40 20 33 0 34 -2 31 -32z"/>
<path d="M2622 614 c-72 -50 -65 -200 11 -219 48 -12 99 -2 108 22 7 20 6 21
-16 11 -75 -34 -139 76 -84 146 22 28 48 33 80 16 16 -9 19 -7 19 15 0 23 -3
25 -48 25 -27 0 -57 -7 -70 -16z"/>
<path d="M2785 510 l0 -120 30 0 31 0 -4 95 c-4 93 -4 94 20 100 14 4 34 5 44
3 13 -2 20 4 22 20 3 18 -1 22 -21 22 -14 0 -30 -7 -37 -15 -7 -8 -16 -15 -21
-15 -5 0 -9 7 -9 15 0 10 -10 15 -27 15 l-28 0 0 -120z"/>
<path d="M2955 510 l0 -120 30 0 30 0 0 120 0 120 -30 0 -30 0 0 -120z"/>
<path d="M3058 475 l3 -155 29 0 c27 0 28 2 23 38 l-5 39 53 -5 c45 -3 57 -1
73 17 36 40 34 158 -5 199 -24 26 -86 31 -95 7 -4 -8 -10 -15 -15 -15 -5 0 -9
7 -9 15 0 10 -10 15 -27 15 l-28 0 3 -155z m136 93 c23 -33 21 -103 -4 -128
-23 -23 -33 -24 -61 -10 -16 9 -19 22 -19 80 0 45 4 70 13 73 28 12 57 6 71
-15z"/>
</g>
</svg>
